<?xml version="1.0" encoding="UTF-8"?>
<svg width="300px" height="35px" viewBox="0 0 300 35" version="1.1" xmlns="http://www.w3.org/2000/svg" xmlns:xlink="http://www.w3.org/1999/xlink">
    <!-- Generator: sketchtool 53.1 (72631) - https://sketchapp.com -->
    <title>D7624810-3A70-4469-9088-9C5E6BCF1B9A</title>
    <desc>Created with sketchtool.</desc>
    <g id="Home" stroke="none" stroke-width="1" fill="none" fill-rule="evenodd">
        <g id="Homepage-B" transform="translate(-122.000000, -3884.000000)" fill="#FFFFFF">
            <g id="Footer/Desktop" transform="translate(0.000000, 3406.000000)">
                <g id="Group-2" transform="translate(0.000000, 459.000000)">
                    <g id="Atom/BSI-Logo/Strapline-Reversed" transform="translate(122.000000, 19.000000)">
                        <g id="Atom/BSI-Logo/Reversed" fill-rule="nonzero">
                            <path d="M10.2773059,9.99474901 C8.18822485,9.99474901 6.18282725,10.6669176 4.67877696,11.6327548 L4.67877696,0 L0,0 L0,31.4960722 L2.75705862,31.4960722 L3.50944997,29.8167382 C5.34748697,31.1603435 7.47840763,32 10.2773059,32 C16.3771842,32 18.6328913,27.8843527 18.6328913,20.9973745 C18.6328913,14.1524565 16.3771842,9.99474901 10.2773059,9.99474901 M9.19092574,13.9842366 C13.2854044,13.9842366 13.9122768,17.1340676 13.9122768,20.9973745 C13.9122768,24.9027416 13.2854044,28.0105124 9.19092574,28.0105124 C6.97705823,28.0105124 5.51484966,27.2542443 4.67877696,26.7923558 L4.67877696,15.2024141 C5.51484966,14.7405256 6.97705823,13.9842366 9.19092574,13.9842366 M24.5529308,16.5459985 C24.5529308,14.6564052 26.0988207,13.9421764 28.5637302,13.9421764 C31.1960003,13.9421764 33.1595582,14.4461251 34.9557577,15.1182937 L34.9557577,11.0446857 C33.3261864,10.3312098 31.3207867,9.99474901 28.4800489,9.99474901 C22.3383309,9.99474901 19.9989424,13.0604596 19.9989424,16.6721791 C19.9989424,20.2831457 21.5448323,22.2576123 27.8531785,22.8028682 C30.6520767,23.0552086 31.3207867,23.8528049 31.3207867,25.4066903 C31.3207867,27.2542443 29.6912155,28.0105124 26.3491282,28.0105124 C23.7175926,28.0105124 21.5029906,27.3383438 20.1244634,26.834416 L20.1244634,30.8659429 C21.5448323,31.454012 24.1352628,32 27.0178403,32 C33.7027494,32 35.9166169,28.8501899 35.9166169,25.2392024 C35.9166169,21.3331033 34.2870456,19.4434891 28.0205391,18.8975011 C25.3045898,18.6458928 24.5529308,18.0157843 24.5529308,16.5459985 M43.3362996,31.7897198 C43.8376511,31.7897198 44.2553191,31.7062687 44.2553191,31.7062687 L44.2553191,27.8843527 C42.9186316,27.8843527 42.5009614,27.4645244 42.5009614,26.2884071 L42.5009614,10.4986977 L37.821452,10.4986977 L37.821452,26.3304673 C37.821452,29.9421868 39.5347026,31.7897198 43.3362996,31.7897198 M37.1109003,4.28388814 C37.1109003,5.96320124 38.4901641,7.3488667 40.161575,7.3488667 C41.8322514,7.3488667 43.2107786,5.96320124 43.2107786,4.28388814 C43.2107786,2.60384301 41.8322514,1.21744552 40.161575,1.21744552 C38.4901641,1.21744552 37.1109003,2.60384301 37.1109003,4.28388814" id="path34"></path>
                            <path d="M45.9148936,28.9122807 C45.9148936,30.6043869 47.2902502,32 48.9578143,32 C50.6246455,32 52,30.6043869 52,28.9122807 C52,27.2201745 50.6246455,25.8245614 48.9578143,25.8245614 C47.2902502,25.8245614 45.9148936,27.2201745 45.9148936,28.9122807" id="path38"></path>
                        </g>
                        <path d="M72.0826004,30.322623 C72.0826004,29.9095082 72.3923518,29.5790164 72.8053537,29.5790164 C73.2183556,29.5790164 73.5487572,29.9095082 73.5487572,30.322623 C73.5487572,30.7357377 73.2183556,31.0455738 72.8053537,31.0455738 C72.3923518,31.0455738 72.0826004,30.7357377 72.0826004,30.322623 Z M75.8409178,30.322623 C75.8409178,29.9095082 76.1506692,29.5790164 76.5636711,29.5790164 C76.976673,29.5790164 77.3070746,29.9095082 77.3070746,30.322623 C77.3070746,30.7357377 76.976673,31.0455738 76.5636711,31.0455738 C76.1506692,31.0455738 75.8409178,30.7357377 75.8409178,30.322623 Z M79.5992352,30.322623 C79.5992352,29.9095082 79.9089866,29.5790164 80.3219885,29.5790164 C80.7349904,29.5790164 81.065392,29.9095082 81.065392,30.322623 C81.065392,30.7357377 80.7349904,31.0455738 80.3219885,31.0455738 C79.9089866,31.0455738 79.5992352,30.7357377 79.5992352,30.322623 Z M97.482218,30.9836066 L96.4497132,30.9836066 L96.4497132,24.4563934 C96.4497132,22.8245902 95.6030593,22.204918 94.4879541,22.204918 C93.4554493,22.204918 92.3403442,22.597377 91.3078394,23.3616393 C91.3697897,23.6714754 91.4110899,24.022623 91.4110899,24.3737705 L91.4110899,30.9836066 L90.3785851,30.9836066 L90.3785851,24.4563934 C90.3785851,22.8245902 89.5319312,22.204918 88.416826,22.204918 C87.3223709,22.204918 86.3518164,22.5354098 85.3399618,23.2170492 L85.3399618,30.9836066 L84.307457,30.9836066 L84.307457,21.4406557 L85.174761,21.4406557 L85.2573614,22.5560656 C86.0833652,21.8537705 87.2604207,21.2340984 88.3961759,21.2340984 C89.5938815,21.2340984 90.6263862,21.7091803 91.1219885,22.762623 C92.1957935,21.7918033 93.3728489,21.2340984 94.467304,21.2340984 C96.1606119,21.2340984 97.482218,22.1429508 97.482218,24.3531148 L97.482218,30.9836066 Z M107.435564,30.9836066 L106.56826,30.9836066 L106.46501,30.0127869 C105.721606,30.7357377 104.585851,31.1901639 103.450096,31.1901639 C102.500191,31.1901639 101.839388,30.9422951 101.323136,30.5291803 C100.703633,30.0127869 100.331931,29.2485246 100.331931,28.2983607 C100.331931,27.4514754 100.621033,26.6459016 101.281836,26.1088525 C101.963289,25.5718033 102.892543,25.3859016 103.925048,25.3859016 C104.668451,25.3859016 105.680306,25.4478689 106.403059,25.5304918 L106.403059,24.022623 C106.403059,23.3822951 106.217208,22.9485246 105.928107,22.68 C105.473805,22.2668852 104.792352,22.1429508 104.048948,22.1429508 C103.016444,22.1429508 101.901338,22.3701639 101.116635,22.597377 L100.910134,21.7298361 C101.715488,21.4613115 102.871893,21.2340984 103.986998,21.2340984 C104.957553,21.2340984 105.928107,21.3993443 106.58891,21.9157377 C107.105163,22.3288525 107.435564,22.9485246 107.435564,23.9193443 L107.435564,30.9836066 Z M106.403059,29.2898361 L106.403059,26.3154098 C105.762906,26.2534426 105.122753,26.2327869 104.33805,26.2327869 C103.037094,26.2327869 102.479541,26.377377 101.983939,26.8111475 C101.591587,27.1622951 101.385086,27.6993443 101.385086,28.3396721 C101.385086,28.8767213 101.570937,29.4137705 101.983939,29.8062295 C102.33499,30.157377 102.871893,30.3639344 103.553346,30.3639344 C104.585851,30.3639344 105.556405,30.0127869 106.403059,29.2898361 Z M118.462715,30.9836066 L116.934608,30.9836066 C115.530402,29.5790164 113.960994,27.7406557 112.845889,26.3360656 L112.061185,26.3360656 L112.061185,30.9836066 L111.028681,30.9836066 L111.028681,17.6813115 L112.061185,17.6813115 L112.061185,25.8403279 C113.568642,24.5183607 115.344551,22.8039344 116.666157,21.4406557 L118.029063,21.4406557 C116.583556,22.9691803 115.055449,24.3944262 113.568642,25.675082 C114.725048,27.1209836 116.170554,28.8147541 118.462715,30.9836066 Z M121.250478,30.9836066 L120.217973,30.9836066 L120.217973,21.4406557 L121.250478,21.4406557 L121.250478,30.9836066 Z M120.073423,18.2390164 C120.073423,17.8672131 120.341874,17.5780328 120.713576,17.5780328 C121.085277,17.5780328 121.374379,17.8672131 121.374379,18.2390164 C121.374379,18.6108197 121.085277,18.8793443 120.713576,18.8793443 C120.341874,18.8793443 120.073423,18.6108197 120.073423,18.2390164 Z M132.195029,30.9836066 L131.162524,30.9836066 L131.162524,24.4563934 C131.162524,22.8245902 130.31587,22.204918 129.200765,22.204918 C127.920459,22.204918 126.826004,22.7006557 126,23.2170492 L126,30.9836066 L124.967495,30.9836066 L124.967495,21.4406557 L125.834799,21.4406557 L125.9174,22.5354098 C126.722753,21.8331148 127.982409,21.2340984 129.180115,21.2340984 C130.873423,21.2340984 132.195029,22.1429508 132.195029,24.3531148 L132.195029,30.9836066 Z M141.838623,32.0163934 L141.838623,30.1986885 C141.01262,30.7977049 140.042065,31.1901639 139.03021,31.1901639 C136.490249,31.1901639 135.354493,29.5377049 135.354493,26.2121311 C135.354493,23.0311475 136.263098,21.2340984 139.092161,21.2340984 C140.434417,21.2340984 141.900574,21.502623 142.871128,21.8537705 L142.871128,32.1196721 C142.871128,32.9872131 142.623327,33.627541 142.230975,34.0613115 C141.632122,34.7636066 140.620268,34.9495082 139.567113,34.9495082 C138.452008,34.9495082 137.254302,34.7222951 136.366348,34.5363934 L136.531549,33.627541 C137.378203,33.8134426 138.452008,34.02 139.381262,34.02 C140.248566,34.02 141.05392,33.8754098 141.446272,33.4003279 C141.714723,33.0698361 141.838623,32.6154098 141.838623,32.0163934 Z M141.838623,29.455082 L141.838623,22.4114754 C141.05392,22.2462295 140.021415,22.1222951 139.133461,22.1222951 C136.90325,22.1222951 136.407648,23.7540984 136.407648,26.2327869 C136.407648,29.0419672 137.233652,30.3639344 139.05086,30.3639344 C140.021415,30.3639344 140.950669,30.0747541 141.838623,29.455082 Z M157.759847,29.4963934 L158.110899,30.2813115 C157.408795,30.6944262 156.19044,31.1901639 154.889484,31.1901639 C153.650478,31.1901639 152.700574,30.9009836 151.99847,30.24 C151.048566,29.3311475 150.676864,27.8232787 150.676864,26.2534426 C150.676864,24.9521311 150.986616,23.6301639 151.709369,22.6593443 C152.328872,21.8331148 153.258126,21.2340984 154.641683,21.2340984 C155.839388,21.2340984 156.747992,21.7091803 157.346845,22.5147541 C157.925048,23.2996721 158.214149,24.415082 158.214149,25.6131148 C158.214149,25.9436066 158.193499,26.2534426 158.152199,26.5632787 L151.709369,26.5632787 C151.750669,27.8439344 152.039771,28.9180328 152.679924,29.5377049 C153.196176,30.0334426 153.939579,30.2813115 154.868834,30.2813115 C155.942639,30.2813115 156.830593,29.9714754 157.759847,29.4963934 Z M151.730019,25.7163934 L157.243595,25.7163934 C157.243595,23.94 156.727342,22.1222951 154.600382,22.1222951 C153.671128,22.1222951 152.969025,22.5560656 152.494073,23.2170492 C152.01912,23.8780328 151.771319,24.7662295 151.730019,25.7163934 Z M167.754493,30.9836066 L166.680688,30.9836066 C165.792734,29.5583607 164.94608,28.2363934 164.016826,26.9557377 C163.087572,28.2363934 162.240918,29.5583607 161.352964,30.9836066 L160.279159,30.9836066 C161.311663,29.3311475 162.323518,27.7406557 163.459273,26.1914754 C162.406119,24.6836066 161.373614,23.072459 160.341109,21.4406557 L161.435564,21.4406557 C162.240918,22.7832787 163.149522,24.2085246 164.016826,25.4272131 C164.88413,24.2085246 165.792734,22.7832787 166.598088,21.4406557 L167.692543,21.4406557 C166.660038,23.072459 165.627533,24.6836066 164.574379,26.1914754 C165.710134,27.7406557 166.721989,29.3311475 167.754493,30.9836066 Z M176.819885,29.4963934 L177.170937,30.2813115 C176.468834,30.6944262 175.167878,31.1901639 173.887572,31.1901639 C171.141109,31.1901639 169.902103,29.4344262 169.902103,26.2740984 C169.902103,24.8695082 170.129254,23.7334426 170.645507,22.8865574 C171.43021,21.6059016 172.710516,21.2340984 174.094073,21.2340984 C175.085277,21.2340984 176.117782,21.3786885 176.861185,21.5645902 L176.695985,22.4321311 C176.097132,22.287541 175.147228,22.1429508 174.279924,22.1429508 C173.144168,22.1429508 172.111663,22.4114754 171.512811,23.4855738 C171.141109,24.1672131 170.955258,25.0760656 170.955258,26.2327869 C170.955258,28.9386885 171.967113,30.2813115 173.866922,30.2813115 C174.961377,30.2813115 175.890631,29.9714754 176.819885,29.4963934 Z M186.318929,29.4963934 L186.669981,30.2813115 C185.967878,30.6944262 184.749522,31.1901639 183.448566,31.1901639 C182.20956,31.1901639 181.259656,30.9009836 180.557553,30.24 C179.607648,29.3311475 179.235946,27.8232787 179.235946,26.2534426 C179.235946,24.9521311 179.545698,23.6301639 180.268451,22.6593443 C180.887954,21.8331148 181.817208,21.2340984 183.200765,21.2340984 C184.39847,21.2340984 185.307075,21.7091803 185.905927,22.5147541 C186.48413,23.2996721 186.773231,24.415082 186.773231,25.6131148 C186.773231,25.9436066 186.752581,26.2534426 186.711281,26.5632787 L180.268451,26.5632787 C180.309751,27.8439344 180.598853,28.9180328 181.239006,29.5377049 C181.755258,30.0334426 182.498662,30.2813115 183.427916,30.2813115 C184.501721,30.2813115 185.389675,29.9714754 186.318929,29.4963934 Z M180.289101,25.7163934 L185.802677,25.7163934 C185.802677,23.94 185.286424,22.1222951 183.159465,22.1222951 C182.23021,22.1222951 181.528107,22.5560656 181.053155,23.2170492 C180.578203,23.8780328 180.330402,24.7662295 180.289101,25.7163934 Z M190.8413,30.9836066 L189.808795,30.9836066 L189.808795,17.6813115 L190.8413,17.6813115 L190.8413,30.9836066 Z M195.590822,30.9836066 L194.558317,30.9836066 L194.558317,17.6813115 L195.590822,17.6813115 L195.590822,30.9836066 Z M205.626769,29.4963934 L205.97782,30.2813115 C205.275717,30.6944262 204.057361,31.1901639 202.756405,31.1901639 C201.5174,31.1901639 200.567495,30.9009836 199.865392,30.24 C198.915488,29.3311475 198.543786,27.8232787 198.543786,26.2534426 C198.543786,24.9521311 198.853537,23.6301639 199.576291,22.6593443 C200.195793,21.8331148 201.125048,21.2340984 202.508604,21.2340984 C203.70631,21.2340984 204.614914,21.7091803 205.213767,22.5147541 C205.791969,23.2996721 206.081071,24.415082 206.081071,25.6131148 C206.081071,25.9436066 206.060421,26.2534426 206.01912,26.5632787 L199.576291,26.5632787 C199.617591,27.8439344 199.906692,28.9180328 200.546845,29.5377049 C201.063098,30.0334426 201.806501,30.2813115 202.735755,30.2813115 C203.80956,30.2813115 204.697514,29.9714754 205.626769,29.4963934 Z M199.596941,25.7163934 L205.110516,25.7163934 C205.110516,23.94 204.594264,22.1222951 202.467304,22.1222951 C201.53805,22.1222951 200.835946,22.5560656 200.360994,23.2170492 C199.886042,23.8780328 199.638241,24.7662295 199.596941,25.7163934 Z M216.344168,30.9836066 L215.311663,30.9836066 L215.311663,24.4563934 C215.311663,22.8245902 214.46501,22.204918 213.349904,22.204918 C212.069598,22.204918 210.975143,22.7006557 210.14914,23.2170492 L210.14914,30.9836066 L209.116635,30.9836066 L209.116635,21.4406557 L209.983939,21.4406557 L210.066539,22.5354098 C210.871893,21.8331148 212.131549,21.2340984 213.329254,21.2340984 C215.022562,21.2340984 216.344168,22.1429508 216.344168,24.3531148 L216.344168,30.9836066 Z M226.235564,29.4963934 L226.586616,30.2813115 C225.884512,30.6944262 224.583556,31.1901639 223.30325,31.1901639 C220.556788,31.1901639 219.317782,29.4344262 219.317782,26.2740984 C219.317782,24.8695082 219.544933,23.7334426 220.061185,22.8865574 C220.845889,21.6059016 222.126195,21.2340984 223.509751,21.2340984 C224.500956,21.2340984 225.533461,21.3786885 226.276864,21.5645902 L226.111663,22.4321311 C225.512811,22.287541 224.562906,22.1429508 223.695602,22.1429508 C222.559847,22.1429508 221.527342,22.4114754 220.928489,23.4855738 C220.556788,24.1672131 220.370937,25.0760656 220.370937,26.2327869 C220.370937,28.9386885 221.382792,30.2813115 223.2826,30.2813115 C224.377055,30.2813115 225.30631,29.9714754 226.235564,29.4963934 Z M235.734608,29.4963934 L236.08566,30.2813115 C235.383556,30.6944262 234.165201,31.1901639 232.864245,31.1901639 C231.625239,31.1901639 230.675335,30.9009836 229.973231,30.24 C229.023327,29.3311475 228.651625,27.8232787 228.651625,26.2534426 C228.651625,24.9521311 228.961377,23.6301639 229.68413,22.6593443 C230.303633,21.8331148 231.232887,21.2340984 232.616444,21.2340984 C233.814149,21.2340984 234.722753,21.7091803 235.321606,22.5147541 C235.899809,23.2996721 236.18891,24.415082 236.18891,25.6131148 C236.18891,25.9436066 236.16826,26.2534426 236.12696,26.5632787 L229.68413,26.5632787 C229.72543,27.8439344 230.014532,28.9180328 230.654685,29.5377049 C231.170937,30.0334426 231.91434,30.2813115 232.843595,30.2813115 C233.9174,30.2813115 234.805354,29.9714754 235.734608,29.4963934 Z M229.70478,25.7163934 L235.218356,25.7163934 C235.218356,23.94 234.702103,22.1222951 232.575143,22.1222951 C231.645889,22.1222951 230.943786,22.5560656 230.468834,23.2170492 C229.993881,23.8780328 229.74608,24.7662295 229.70478,25.7163934 Z M250.664627,30.9836066 L249.797323,30.9836066 L249.694073,30.0127869 C248.950669,30.7357377 247.814914,31.1901639 246.679159,31.1901639 C245.729254,31.1901639 245.068451,30.9422951 244.552199,30.5291803 C243.932696,30.0127869 243.560994,29.2485246 243.560994,28.2983607 C243.560994,27.4514754 243.850096,26.6459016 244.510899,26.1088525 C245.192352,25.5718033 246.121606,25.3859016 247.154111,25.3859016 C247.897514,25.3859016 248.909369,25.4478689 249.632122,25.5304918 L249.632122,24.022623 C249.632122,23.3822951 249.446272,22.9485246 249.15717,22.68 C248.702868,22.2668852 248.021415,22.1429508 247.278011,22.1429508 C246.245507,22.1429508 245.130402,22.3701639 244.345698,22.597377 L244.139197,21.7298361 C244.944551,21.4613115 246.100956,21.2340984 247.216061,21.2340984 C248.186616,21.2340984 249.15717,21.3993443 249.817973,21.9157377 C250.334226,22.3288525 250.664627,22.9485246 250.664627,23.9193443 L250.664627,30.9836066 Z M249.632122,29.2898361 L249.632122,26.3154098 C248.991969,26.2534426 248.351816,26.2327869 247.567113,26.2327869 C246.266157,26.2327869 245.708604,26.377377 245.213002,26.8111475 C244.82065,27.1622951 244.614149,27.6993443 244.614149,28.3396721 C244.614149,28.8767213 244.8,29.4137705 245.213002,29.8062295 C245.564054,30.157377 246.100956,30.3639344 246.782409,30.3639344 C247.814914,30.3639344 248.785468,30.0127869 249.632122,29.2898361 Z M266.544551,30.9836066 L265.512046,30.9836066 L265.512046,24.4563934 C265.512046,22.8245902 264.665392,22.204918 263.550287,22.204918 C262.269981,22.204918 261.175526,22.7006557 260.349522,23.2170492 L260.349522,30.9836066 L259.317017,30.9836066 L259.317017,17.6813115 L260.349522,17.6813115 L260.349522,22.5147541 C261.175526,21.812459 262.331931,21.2340984 263.529637,21.2340984 C265.222945,21.2340984 266.544551,22.1429508 266.544551,24.3531148 L266.544551,30.9836066 Z M276.497897,30.9836066 L275.630593,30.9836066 L275.527342,30.0127869 C274.783939,30.7357377 273.648184,31.1901639 272.512428,31.1901639 C271.562524,31.1901639 270.901721,30.9422951 270.385468,30.5291803 C269.765966,30.0127869 269.394264,29.2485246 269.394264,28.2983607 C269.394264,27.4514754 269.683365,26.6459016 270.344168,26.1088525 C271.025621,25.5718033 271.954876,25.3859016 272.98738,25.3859016 C273.730784,25.3859016 274.742639,25.4478689 275.465392,25.5304918 L275.465392,24.022623 C275.465392,23.3822951 275.279541,22.9485246 274.99044,22.68 C274.536138,22.2668852 273.854685,22.1429508 273.111281,22.1429508 C272.078776,22.1429508 270.963671,22.3701639 270.178967,22.597377 L269.972467,21.7298361 C270.77782,21.4613115 271.934226,21.2340984 273.049331,21.2340984 C274.019885,21.2340984 274.99044,21.3993443 275.651243,21.9157377 C276.167495,22.3288525 276.497897,22.9485246 276.497897,23.9193443 L276.497897,30.9836066 Z M275.465392,29.2898361 L275.465392,26.3154098 C274.825239,26.2534426 274.185086,26.2327869 273.400382,26.2327869 C272.099426,26.2327869 271.541874,26.377377 271.046272,26.8111475 C270.65392,27.1622951 270.447419,27.6993443 270.447419,28.3396721 C270.447419,28.8767213 270.63327,29.4137705 271.046272,29.8062295 C271.397323,30.157377 271.934226,30.3639344 272.615679,30.3639344 C273.648184,30.3639344 274.618738,30.0127869 275.465392,29.2898361 Z M280.091013,30.5704918 L280.091013,17.6813115 L281.123518,17.6813115 L281.123518,22.2255738 C281.949522,21.6265574 282.920076,21.2340984 283.931931,21.2340984 C286.471893,21.2340984 287.607648,22.8865574 287.607648,26.2121311 C287.607648,29.3931148 286.699044,31.1901639 283.869981,31.1901639 C282.527725,31.1901639 281.061568,30.9216393 280.091013,30.5704918 Z M281.123518,23.0311475 L281.123518,30.0747541 C281.908222,30.24 282.940727,30.3639344 283.828681,30.3639344 C286.058891,30.3639344 286.554493,28.7321311 286.554493,26.2534426 C286.554493,23.4442623 285.728489,22.1222951 283.911281,22.1222951 C282.940727,22.1222951 282.011472,22.4114754 281.123518,23.0311475 Z M291.944168,30.9836066 L290.911663,30.9836066 L290.911663,21.4406557 L291.944168,21.4406557 L291.944168,30.9836066 Z M290.767113,18.2390164 C290.767113,17.8672131 291.035564,17.5780328 291.407266,17.5780328 C291.778967,17.5780328 292.068069,17.8672131 292.068069,18.2390164 C292.068069,18.6108197 291.778967,18.8793443 291.407266,18.8793443 C291.035564,18.8793443 290.767113,18.6108197 290.767113,18.2390164 Z M299.605354,29.8062295 L299.956405,30.5911475 C299.440153,30.8803279 298.69675,31.1281967 297.891396,31.1281967 C296.466539,31.1281967 295.888337,30.3019672 295.888337,28.6288525 L295.888337,22.287541 L294.52543,22.287541 L294.52543,21.5645902 L295.929637,21.4819672 L296.032887,18.5901639 L296.920841,18.5901639 L296.920841,21.4406557 L299.791205,21.4406557 L299.791205,22.287541 L296.920841,22.287541 L296.920841,28.504918 C296.920841,29.5790164 297.106692,30.2193443 297.994646,30.2193443 C298.510899,30.2193443 299.006501,30.0954098 299.605354,29.8062295 Z" id="…making-excellence-a" fill-rule="evenodd"></path>
                    </g>
                </g>
            </g>
        </g>
    </g>
</svg>